<?xml version="1.0" encoding="UTF-8"?>
<!DOCTYPE svg  PUBLIC '-//W3C//DTD SVG 1.1//EN'  'http://www.w3.org/Graphics/SVG/1.1/DTD/svg11.dtd'>
<svg enable-background="new 0 0 1160 1160" version="1.1" viewBox="0 0 1160 1160" xml:space="preserve" xmlns="http://www.w3.org/2000/svg">
<rect width="1160" height="1160" fill="#fff"/><g transform="translate(80,80)"><g transform="translate(320) scale(.4)"><g transform="">
<rect width="100" height="100"/>
</g></g><g transform="translate(400) scale(.4)"><g transform="">
<rect width="100" height="100"/>
</g></g><g transform="translate(480) scale(.4)"><g transform="">
<rect width="100" height="100"/>
</g></g><g transform="translate(520) scale(.4)"><g transform="">
<rect width="100" height="100"/>
</g></g><g transform="translate(560) scale(.4)"><g transform="">
<rect width="100" height="100"/>
</g></g><g transform="translate(320 40) scale(.4)"><g transform="">
<rect width="100" height="100"/>
</g></g><g transform="translate(480 40) scale(.4)"><g transform="">
<rect width="100" height="100"/>
</g></g><g transform="translate(520 40) scale(.4)"><g transform="">
<rect width="100" height="100"/>
</g></g><g transform="translate(560 40) scale(.4)"><g transform="">
<rect width="100" height="100"/>
</g></g><g transform="translate(640 40) scale(.4)"><g transform="">
<rect width="100" height="100"/>
</g></g><g transform="translate(320 80) scale(.4)"><g transform="">
<rect width="100" height="100"/>
</g></g><g transform="translate(360 80) scale(.4)"><g transform="">
<rect width="100" height="100"/>
</g></g><g transform="translate(440 80) scale(.4)"><g transform="">
<rect width="100" height="100"/>
</g></g><g transform="translate(520 80) scale(.4)"><g transform="">
<rect width="100" height="100"/>
</g></g><g transform="translate(560 80) scale(.4)"><g transform="">
<rect width="100" height="100"/>
</g></g><g transform="translate(360 120) scale(.4)"><g transform="">
<rect width="100" height="100"/>
</g></g><g transform="translate(400 120) scale(.4)"><g transform="">
<rect width="100" height="100"/>
</g></g><g transform="translate(520 120) scale(.4)"><g transform="">
<rect width="100" height="100"/>
</g></g><g transform="translate(600 120) scale(.4)"><g transform="">
<rect width="100" height="100"/>
</g></g><g transform="translate(640 120) scale(.4)"><g transform="">
<rect width="100" height="100"/>
</g></g><g transform="translate(320 160) scale(.4)"><g transform="">
<rect width="100" height="100"/>
</g></g><g transform="translate(560 160) scale(.4)"><g transform="">
<rect width="100" height="100"/>
</g></g><g transform="translate(400 200) scale(.4)"><g transform="">
<rect width="100" height="100"/>
</g></g><g transform="translate(480 200) scale(.4)"><g transform="">
<rect width="100" height="100"/>
</g></g><g transform="translate(520 200) scale(.4)"><g transform="">
<rect width="100" height="100"/>
</g></g><g transform="translate(640 200) scale(.4)"><g transform="">
<rect width="100" height="100"/>
</g></g><g transform="translate(320 240) scale(.4)"><g transform="">
<rect width="100" height="100"/>
</g></g><g transform="translate(400 240) scale(.4)"><g transform="">
<rect width="100" height="100"/>
</g></g><g transform="translate(480 240) scale(.4)"><g transform="">
<rect width="100" height="100"/>
</g></g><g transform="translate(560 240) scale(.4)"><g transform="">
<rect width="100" height="100"/>
</g></g><g transform="translate(640 240) scale(.4)"><g transform="">
<rect width="100" height="100"/>
</g></g><g transform="translate(480 280) scale(.4)"><g transform="">
<rect width="100" height="100"/>
</g></g><g transform="translate(520 280) scale(.4)"><g transform="">
<rect width="100" height="100"/>
</g></g><g transform="translate(600 280) scale(.4)"><g transform="">
<rect width="100" height="100"/>
</g></g><g transform="translate(640 280) scale(.4)"><g transform="">
<rect width="100" height="100"/>
</g></g><g transform="translate(0 320) scale(.4)"><g transform="">
<rect width="100" height="100"/>
</g></g><g transform="translate(120 320) scale(.4)"><g transform="">
<rect width="100" height="100"/>
</g></g><g transform="translate(160 320) scale(.4)"><g transform="">
<rect width="100" height="100"/>
</g></g><g transform="translate(200 320) scale(.4)"><g transform="">
<rect width="100" height="100"/>
</g></g><g transform="translate(240 320) scale(.4)"><g transform="">
<rect width="100" height="100"/>
</g></g><g transform="translate(280 320) scale(.4)"><g transform="">
<rect width="100" height="100"/>
</g></g><g transform="translate(320 320) scale(.4)"><g transform="">
<rect width="100" height="100"/>
</g></g><g transform="translate(360 320) scale(.4)"><g transform="">
<rect width="100" height="100"/>
</g></g><g transform="translate(440 320) scale(.4)"><g transform="">
<rect width="100" height="100"/>
</g></g><g transform="translate(480 320) scale(.4)"><g transform="">
<rect width="100" height="100"/>
</g></g><g transform="translate(560 320) scale(.4)"><g transform="">
<rect width="100" height="100"/>
</g></g><g transform="translate(600 320) scale(.4)"><g transform="">
<rect width="100" height="100"/>
</g></g><g transform="translate(680 320) scale(.4)"><g transform="">
<rect width="100" height="100"/>
</g></g><g transform="translate(800 320) scale(.4)"><g transform="">
<rect width="100" height="100"/>
</g></g><g transform="translate(880 320) scale(.4)"><g transform="">
<rect width="100" height="100"/>
</g></g><g transform="translate(920 320) scale(.4)"><g transform="">
<rect width="100" height="100"/>
</g></g><g transform="translate(960 320) scale(.4)"><g transform="">
<rect width="100" height="100"/>
</g></g><g transform="translate(80 360) scale(.4)"><g transform="">
<rect width="100" height="100"/>
</g></g><g transform="translate(120 360) scale(.4)"><g transform="">
<rect width="100" height="100"/>
</g></g><g transform="translate(160 360) scale(.4)"><g transform="">
<rect width="100" height="100"/>
</g></g><g transform="translate(440 360) scale(.4)"><g transform="">
<rect width="100" height="100"/>
</g></g><g transform="translate(600 360) scale(.4)"><g transform="">
<rect width="100" height="100"/>
</g></g><g transform="translate(680 360) scale(.4)"><g transform="">
<rect width="100" height="100"/>
</g></g><g transform="translate(760 360) scale(.4)"><g transform="">
<rect width="100" height="100"/>
</g></g><g transform="translate(800 360) scale(.4)"><g transform="">
<rect width="100" height="100"/>
</g></g><g transform="translate(840 360) scale(.4)"><g transform="">
<rect width="100" height="100"/>
</g></g><g transform="translate(880 360) scale(.4)"><g transform="">
<rect width="100" height="100"/>
</g></g><g transform="translate(920 360) scale(.4)"><g transform="">
<rect width="100" height="100"/>
</g></g><g transform="translate(0 400) scale(.4)"><g transform="">
<rect width="100" height="100"/>
</g></g><g transform="translate(80 400) scale(.4)"><g transform="">
<rect width="100" height="100"/>
</g></g><g transform="translate(120 400) scale(.4)"><g transform="">
<rect width="100" height="100"/>
</g></g><g transform="translate(240 400) scale(.4)"><g transform="">
<rect width="100" height="100"/>
</g></g><g transform="translate(280 400) scale(.4)"><g transform="">
<rect width="100" height="100"/>
</g></g><g transform="translate(320 400) scale(.4)"><g transform="">
<rect width="100" height="100"/>
</g></g><g transform="translate(360 400) scale(.4)"><g transform="">
<rect width="100" height="100"/>
</g></g><g transform="translate(400 400) scale(.4)"><g transform="">
<rect width="100" height="100"/>
</g></g><g transform="translate(480 400) scale(.4)"><g transform="">
<rect width="100" height="100"/>
</g></g><g transform="translate(600 400) scale(.4)"><g transform="">
<rect width="100" height="100"/>
</g></g><g transform="translate(680 400) scale(.4)"><g transform="">
<rect width="100" height="100"/>
</g></g><g transform="translate(720 400) scale(.4)"><g transform="">
<rect width="100" height="100"/>
</g></g><g transform="translate(800 400) scale(.4)"><g transform="">
<rect width="100" height="100"/>
</g></g><g transform="translate(840 400) scale(.4)"><g transform="">
<rect width="100" height="100"/>
</g></g><g transform="translate(960 400) scale(.4)"><g transform="">
<rect width="100" height="100"/>
</g></g><g transform="translate(40 440) scale(.4)"><g transform="">
<rect width="100" height="100"/>
</g></g><g transform="translate(80 440) scale(.4)"><g transform="">
<rect width="100" height="100"/>
</g></g><g transform="translate(120 440) scale(.4)"><g transform="">
<rect width="100" height="100"/>
</g></g><g transform="translate(160 440) scale(.4)"><g transform="">
<rect width="100" height="100"/>
</g></g><g transform="translate(320 440) scale(.4)"><g transform="">
<rect width="100" height="100"/>
</g></g><g transform="translate(360 440) scale(.4)"><g transform="">
<rect width="100" height="100"/>
</g></g><g transform="translate(680 440) scale(.4)"><g transform="">
<rect width="100" height="100"/>
</g></g><g transform="translate(760 440) scale(.4)"><g transform="">
<rect width="100" height="100"/>
</g></g><g transform="translate(840 440) scale(.4)"><g transform="">
<rect width="100" height="100"/>
</g></g><g transform="translate(880 440) scale(.4)"><g transform="">
<rect width="100" height="100"/>
</g></g><g transform="translate(920 440) scale(.4)"><g transform="">
<rect width="100" height="100"/>
</g></g><g transform="translate(960 440) scale(.4)"><g transform="">
<rect width="100" height="100"/>
</g></g><g transform="translate(40 480) scale(.4)"><g transform="">
<rect width="100" height="100"/>
</g></g><g transform="translate(80 480) scale(.4)"><g transform="">
<rect width="100" height="100"/>
</g></g><g transform="translate(240 480) scale(.4)"><g transform="">
<rect width="100" height="100"/>
</g></g><g transform="translate(280 480) scale(.4)"><g transform="">
<rect width="100" height="100"/>
</g></g><g transform="translate(320 480) scale(.4)"><g transform="">
<rect width="100" height="100"/>
</g></g><g transform="translate(480 480) scale(.4)"><g transform="">
<rect width="100" height="100"/>
</g></g><g transform="translate(600 480) scale(.4)"><g transform="">
<rect width="100" height="100"/>
</g></g><g transform="translate(720 480) scale(.4)"><g transform="">
<rect width="100" height="100"/>
</g></g><g transform="translate(960 480) scale(.4)"><g transform="">
<rect width="100" height="100"/>
</g></g><g transform="translate(0 520) scale(.4)"><g transform="">
<rect width="100" height="100"/>
</g></g><g transform="translate(120 520) scale(.4)"><g transform="">
<rect width="100" height="100"/>
</g></g><g transform="translate(320 520) scale(.4)"><g transform="">
<rect width="100" height="100"/>
</g></g><g transform="translate(400 520) scale(.4)"><g transform="">
<rect width="100" height="100"/>
</g></g><g transform="translate(560 520) scale(.4)"><g transform="">
<rect width="100" height="100"/>
</g></g><g transform="translate(600 520) scale(.4)"><g transform="">
<rect width="100" height="100"/>
</g></g><g transform="translate(640 520) scale(.4)"><g transform="">
<rect width="100" height="100"/>
</g></g><g transform="translate(800 520) scale(.4)"><g transform="">
<rect width="100" height="100"/>
</g></g><g transform="translate(920 520) scale(.4)"><g transform="">
<rect width="100" height="100"/>
</g></g><g transform="translate(0 560) scale(.4)"><g transform="">
<rect width="100" height="100"/>
</g></g><g transform="translate(40 560) scale(.4)"><g transform="">
<rect width="100" height="100"/>
</g></g><g transform="translate(80 560) scale(.4)"><g transform="">
<rect width="100" height="100"/>
</g></g><g transform="translate(120 560) scale(.4)"><g transform="">
<rect width="100" height="100"/>
</g></g><g transform="translate(240 560) scale(.4)"><g transform="">
<rect width="100" height="100"/>
</g></g><g transform="translate(280 560) scale(.4)"><g transform="">
<rect width="100" height="100"/>
</g></g><g transform="translate(400 560) scale(.4)"><g transform="">
<rect width="100" height="100"/>
</g></g><g transform="translate(440 560) scale(.4)"><g transform="">
<rect width="100" height="100"/>
</g></g><g transform="translate(480 560) scale(.4)"><g transform="">
<rect width="100" height="100"/>
</g></g><g transform="translate(520 560) scale(.4)"><g transform="">
<rect width="100" height="100"/>
</g></g><g transform="translate(600 560) scale(.4)"><g transform="">
<rect width="100" height="100"/>
</g></g><g transform="translate(640 560) scale(.4)"><g transform="">
<rect width="100" height="100"/>
</g></g><g transform="translate(720 560) scale(.4)"><g transform="">
<rect width="100" height="100"/>
</g></g><g transform="translate(800 560) scale(.4)"><g transform="">
<rect width="100" height="100"/>
</g></g><g transform="translate(840 560) scale(.4)"><g transform="">
<rect width="100" height="100"/>
</g></g><g transform="translate(880 560) scale(.4)"><g transform="">
<rect width="100" height="100"/>
</g></g><g transform="translate(920 560) scale(.4)"><g transform="">
<rect width="100" height="100"/>
</g></g><g transform="translate(960 560) scale(.4)"><g transform="">
<rect width="100" height="100"/>
</g></g><g transform="translate(0 600) scale(.4)"><g transform="">
<rect width="100" height="100"/>
</g></g><g transform="translate(80 600) scale(.4)"><g transform="">
<rect width="100" height="100"/>
</g></g><g transform="translate(120 600) scale(.4)"><g transform="">
<rect width="100" height="100"/>
</g></g><g transform="translate(280 600) scale(.4)"><g transform="">
<rect width="100" height="100"/>
</g></g><g transform="translate(320 600) scale(.4)"><g transform="">
<rect width="100" height="100"/>
</g></g><g transform="translate(400 600) scale(.4)"><g transform="">
<rect width="100" height="100"/>
</g></g><g transform="translate(440 600) scale(.4)"><g transform="">
<rect width="100" height="100"/>
</g></g><g transform="translate(600 600) scale(.4)"><g transform="">
<rect width="100" height="100"/>
</g></g><g transform="translate(680 600) scale(.4)"><g transform="">
<rect width="100" height="100"/>
</g></g><g transform="translate(720 600) scale(.4)"><g transform="">
<rect width="100" height="100"/>
</g></g><g transform="translate(760 600) scale(.4)"><g transform="">
<rect width="100" height="100"/>
</g></g><g transform="translate(840 600) scale(.4)"><g transform="">
<rect width="100" height="100"/>
</g></g><g transform="translate(880 600) scale(.4)"><g transform="">
<rect width="100" height="100"/>
</g></g><g transform="translate(960 600) scale(.4)"><g transform="">
<rect width="100" height="100"/>
</g></g><g transform="translate(0 640) scale(.4)"><g transform="">
<rect width="100" height="100"/>
</g></g><g transform="translate(160 640) scale(.4)"><g transform="">
<rect width="100" height="100"/>
</g></g><g transform="translate(240 640) scale(.4)"><g transform="">
<rect width="100" height="100"/>
</g></g><g transform="translate(320 640) scale(.4)"><g transform="">
<rect width="100" height="100"/>
</g></g><g transform="translate(480 640) scale(.4)"><g transform="">
<rect width="100" height="100"/>
</g></g><g transform="translate(520 640) scale(.4)"><g transform="">
<rect width="100" height="100"/>
</g></g><g transform="translate(640 640) scale(.4)"><g transform="">
<rect width="100" height="100"/>
</g></g><g transform="translate(680 640) scale(.4)"><g transform="">
<rect width="100" height="100"/>
</g></g><g transform="translate(720 640) scale(.4)"><g transform="">
<rect width="100" height="100"/>
</g></g><g transform="translate(760 640) scale(.4)"><g transform="">
<rect width="100" height="100"/>
</g></g><g transform="translate(800 640) scale(.4)"><g transform="">
<rect width="100" height="100"/>
</g></g><g transform="translate(880 640) scale(.4)"><g transform="">
<rect width="100" height="100"/>
</g></g><g transform="translate(920 640) scale(.4)"><g transform="">
<rect width="100" height="100"/>
</g></g><g transform="translate(320 680) scale(.4)"><g transform="">
<rect width="100" height="100"/>
</g></g><g transform="translate(400 680) scale(.4)"><g transform="">
<rect width="100" height="100"/>
</g></g><g transform="translate(440 680) scale(.4)"><g transform="">
<rect width="100" height="100"/>
</g></g><g transform="translate(480 680) scale(.4)"><g transform="">
<rect width="100" height="100"/>
</g></g><g transform="translate(560 680) scale(.4)"><g transform="">
<rect width="100" height="100"/>
</g></g><g transform="translate(640 680) scale(.4)"><g transform="">
<rect width="100" height="100"/>
</g></g><g transform="translate(800 680) scale(.4)"><g transform="">
<rect width="100" height="100"/>
</g></g><g transform="translate(880 680) scale(.4)"><g transform="">
<rect width="100" height="100"/>
</g></g><g transform="translate(920 680) scale(.4)"><g transform="">
<rect width="100" height="100"/>
</g></g><g transform="translate(320 720) scale(.4)"><g transform="">
<rect width="100" height="100"/>
</g></g><g transform="translate(360 720) scale(.4)"><g transform="">
<rect width="100" height="100"/>
</g></g><g transform="translate(440 720) scale(.4)"><g transform="">
<rect width="100" height="100"/>
</g></g><g transform="translate(640 720) scale(.4)"><g transform="">
<rect width="100" height="100"/>
</g></g><g transform="translate(720 720) scale(.4)"><g transform="">
<rect width="100" height="100"/>
</g></g><g transform="translate(800 720) scale(.4)"><g transform="">
<rect width="100" height="100"/>
</g></g><g transform="translate(960 720) scale(.4)"><g transform="">
<rect width="100" height="100"/>
</g></g><g transform="translate(320 760) scale(.4)"><g transform="">
<rect width="100" height="100"/>
</g></g><g transform="translate(360 760) scale(.4)"><g transform="">
<rect width="100" height="100"/>
</g></g><g transform="translate(520 760) scale(.4)"><g transform="">
<rect width="100" height="100"/>
</g></g><g transform="translate(560 760) scale(.4)"><g transform="">
<rect width="100" height="100"/>
</g></g><g transform="translate(640 760) scale(.4)"><g transform="">
<rect width="100" height="100"/>
</g></g><g transform="translate(800 760) scale(.4)"><g transform="">
<rect width="100" height="100"/>
</g></g><g transform="translate(920 760) scale(.4)"><g transform="">
<rect width="100" height="100"/>
</g></g><g transform="translate(960 760) scale(.4)"><g transform="">
<rect width="100" height="100"/>
</g></g><g transform="translate(320 800) scale(.4)"><g transform="">
<rect width="100" height="100"/>
</g></g><g transform="translate(400 800) scale(.4)"><g transform="">
<rect width="100" height="100"/>
</g></g><g transform="translate(480 800) scale(.4)"><g transform="">
<rect width="100" height="100"/>
</g></g><g transform="translate(560 800) scale(.4)"><g transform="">
<rect width="100" height="100"/>
</g></g><g transform="translate(600 800) scale(.4)"><g transform="">
<rect width="100" height="100"/>
</g></g><g transform="translate(640 800) scale(.4)"><g transform="">
<rect width="100" height="100"/>
</g></g><g transform="translate(680 800) scale(.4)"><g transform="">
<rect width="100" height="100"/>
</g></g><g transform="translate(720 800) scale(.4)"><g transform="">
<rect width="100" height="100"/>
</g></g><g transform="translate(760 800) scale(.4)"><g transform="">
<rect width="100" height="100"/>
</g></g><g transform="translate(800 800) scale(.4)"><g transform="">
<rect width="100" height="100"/>
</g></g><g transform="translate(320 840) scale(.4)"><g transform="">
<rect width="100" height="100"/>
</g></g><g transform="translate(400 840) scale(.4)"><g transform="">
<rect width="100" height="100"/>
</g></g><g transform="translate(440 840) scale(.4)"><g transform="">
<rect width="100" height="100"/>
</g></g><g transform="translate(560 840) scale(.4)"><g transform="">
<rect width="100" height="100"/>
</g></g><g transform="translate(640 840) scale(.4)"><g transform="">
<rect width="100" height="100"/>
</g></g><g transform="translate(680 840) scale(.4)"><g transform="">
<rect width="100" height="100"/>
</g></g><g transform="translate(720 840) scale(.4)"><g transform="">
<rect width="100" height="100"/>
</g></g><g transform="translate(920 840) scale(.4)"><g transform="">
<rect width="100" height="100"/>
</g></g><g transform="translate(960 840) scale(.4)"><g transform="">
<rect width="100" height="100"/>
</g></g><g transform="translate(360 880) scale(.4)"><g transform="">
<rect width="100" height="100"/>
</g></g><g transform="translate(440 880) scale(.4)"><g transform="">
<rect width="100" height="100"/>
</g></g><g transform="translate(480 880) scale(.4)"><g transform="">
<rect width="100" height="100"/>
</g></g><g transform="translate(560 880) scale(.4)"><g transform="">
<rect width="100" height="100"/>
</g></g><g transform="translate(680 880) scale(.4)"><g transform="">
<rect width="100" height="100"/>
</g></g><g transform="translate(800 880) scale(.4)"><g transform="">
<rect width="100" height="100"/>
</g></g><g transform="translate(840 880) scale(.4)"><g transform="">
<rect width="100" height="100"/>
</g></g><g transform="translate(880 880) scale(.4)"><g transform="">
<rect width="100" height="100"/>
</g></g><g transform="translate(920 880) scale(.4)"><g transform="">
<rect width="100" height="100"/>
</g></g><g transform="translate(960 880) scale(.4)"><g transform="">
<rect width="100" height="100"/>
</g></g><g transform="translate(360 920) scale(.4)"><g transform="">
<rect width="100" height="100"/>
</g></g><g transform="translate(400 920) scale(.4)"><g transform="">
<rect width="100" height="100"/>
</g></g><g transform="translate(440 920) scale(.4)"><g transform="">
<rect width="100" height="100"/>
</g></g><g transform="translate(560 920) scale(.4)"><g transform="">
<rect width="100" height="100"/>
</g></g><g transform="translate(600 920) scale(.4)"><g transform="">
<rect width="100" height="100"/>
</g></g><g transform="translate(680 920) scale(.4)"><g transform="">
<rect width="100" height="100"/>
</g></g><g transform="translate(760 920) scale(.4)"><g transform="">
<rect width="100" height="100"/>
</g></g><g transform="translate(800 920) scale(.4)"><g transform="">
<rect width="100" height="100"/>
</g></g><g transform="translate(880 920) scale(.4)"><g transform="">
<rect width="100" height="100"/>
</g></g><g transform="translate(920 920) scale(.4)"><g transform="">
<rect width="100" height="100"/>
</g></g><g transform="translate(960 920) scale(.4)"><g transform="">
<rect width="100" height="100"/>
</g></g><g transform="translate(320 960) scale(.4)"><g transform="">
<rect width="100" height="100"/>
</g></g><g transform="translate(400 960) scale(.4)"><g transform="">
<rect width="100" height="100"/>
</g></g><g transform="translate(440 960) scale(.4)"><g transform="">
<rect width="100" height="100"/>
</g></g><g transform="translate(640 960) scale(.4)"><g transform="">
<rect width="100" height="100"/>
</g></g><g transform="translate(840 960) scale(.4)"><g transform="">
<rect width="100" height="100"/>
</g></g><g transform="translate(960 960) scale(.4)"><g transform="">
<rect width="100" height="100"/>
</g></g><g transform="translate(0) scale(2.8)"><g transform="">

	<rect x="15" y="15" width="70" height="70" fill="none"/>
	<path d="m85 0h-85v100h100v-100h-15zm0 85h-70v-70h70v70z"/>

</g></g><g transform="translate(720) scale(2.8)"><g transform="">

	<rect x="15" y="15" width="70" height="70" fill="none"/>
	<path d="m85 0h-85v100h100v-100h-15zm0 85h-70v-70h70v70z"/>

</g></g><g transform="translate(0 720) scale(2.8)"><g transform="">

	<rect x="15" y="15" width="70" height="70" fill="none"/>
	<path d="m85 0h-85v100h100v-100h-15zm0 85h-70v-70h70v70z"/>

</g></g><g transform="translate(80 80) scale(1.2)"><g transform="">
<rect width="100" height="100"/>
</g></g><g transform="translate(800 80) scale(1.2)"><g transform="">
<rect width="100" height="100"/>
</g></g><g transform="translate(80 800) scale(1.2)"><g transform="">
<rect width="100" height="100"/>
</g></g></g></svg>
